<?xml version="1.0" encoding="UTF-8"?><svg xmlns="http://www.w3.org/2000/svg" xmlns:xlink="http://www.w3.org/1999/xlink" viewBox="0 0 50 50" version="1.1"><path d="M48.875 6a1.075 1.075 0 0 0-.219.063c-.066.023-.12.07-.187.093-5.219 1.992-9.086 6.356-11.969 10.657-2.203 3.285-3.395 5.722-4.594 7.875-.015.019-.015.039-.031.062-.004.008-.027-.008-.031 0-.082.129-.219.387-.313.563l-.343.593c-.176-.238-.258-.445-.5-.687-1.122-1.121-3.06-2.219-6-2.219-4.297 0-7.778 2.45-10.5 5.438-2.598 2.851-4.524 6.21-5.97 8.718-3.386.785-7.25 1-7.25 1a.995.995 0 0 0-.847.532.996.996 0 0 0 .035 1s.614.906 1.875 1.718C3.293 42.22 5.27 43 8.094 43c2.011 0 4.906-.492 7.875-.969 2.969-.476 5.992-.937 7.844-.937 4.976 0 7.558.297 8.5.437h.03a1.702 1.702 0 0 0 1.72-.843l4.156-7.188c.597-1.031-.09-2.426-1.282-2.563-1.257-.144-3.39-.343-5.28-.343-.196 0-.31.058-.5.062.253-.543.343-.742.718-1.531.355-.742.727-1.508 1.031-2.125.114-.227.125-.254.219-.438.121-.207.34-.554.469-.78-.028.09.21-.13.75-.345.605-.238 1.41-.523 2.25-.812.84-.29 1.734-.613 2.5-1 .765-.387 1.453-.805 1.875-1.594 1.031-1.93 1.199-4.617 1.968-6.718 1.094-2.989 4.254-5.946 6.594-7.47a.997.997 0 0 0 .418-1.187A.998.998 0 0 0 48.875 6zm-7.531 8.094c-.078.183-.211.344-.282.531-.902 2.469-1.187 5.238-1.843 6.469-.059.11-.422.441-1.032.75-.609.308-1.406.625-2.218.906-.258.09-.492.164-.75.25.98-1.793 1.605-3.031 2.968-5.063.91-1.355 2.063-2.59 3.157-3.843zM24.687 25c2.47 0 3.805.836 4.594 1.625.719.719.871 1.238.907 1.344-.047.097-.079.183-.125.281a2151.3 2151.3 0 0 0-1.25 2.625c-3.786.328-6.852 1.063-9 2-2.7 1.18-4.422 2.375-5.657 2.594a1 1 0 1 0 .344 1.969c1.96-.348 3.613-1.622 6.125-2.72 2.512-1.097 5.86-2.124 11.031-2.124 1.59 0 3.356.176 4.594.312l-3.844 6.657c-1.113-.16-3.664-.47-8.593-.47-2.168 0-5.184.493-8.157.97-2.972.476-5.894.937-7.562.937-2.149 0-3.524-.527-4.5-1.063 1.55-.16 3.547-.43 5.469-.906.261-.066.488-.234.624-.468 1.47-2.543 3.45-6.016 5.97-8.782 2.519-2.765 5.5-4.781 9.03-4.781z" id="surface1"/><metadata><rdf:RDF xmlns:rdf="http://www.w3.org/1999/02/22-rdf-syntax-ns#" xmlns:rdfs="http://www.w3.org/2000/01/rdf-schema#" xmlns:dc="http://purl.org/dc/elements/1.1/"><rdf:Description about="https://iconscout.com/legal#licenses" dc:title="pied,piper" dc:description="pied,piper" dc:publisher="Iconscout" dc:date="2017-12-09" dc:format="image/svg+xml" dc:language="en"><dc:creator><rdf:Bag><rdf:li>Icons8</rdf:li></rdf:Bag></dc:creator></rdf:Description></rdf:RDF></metadata></svg>